# This file uses centimeters as units for non-parametric coordinates.

mtllib branch_2.mtl
g default
v 0.163553 -0.337500 -0.053142
v 0.139126 -0.337500 -0.101081
v 0.101081 -0.337500 -0.139126
v 0.053142 -0.337500 -0.163553
v 0.000000 -0.337500 -0.171970
v -0.053142 -0.337500 -0.163553
v -0.101081 -0.337500 -0.139126
v -0.139126 -0.337500 -0.101081
v -0.163553 -0.337500 -0.053142
v -0.171970 -0.337500 0.000000
v -0.163553 -0.337500 0.053142
v -0.139126 -0.337500 0.101081
v -0.101081 -0.337500 0.139126
v -0.053142 -0.337500 0.163553
v -0.000000 -0.337500 0.171970
v 0.053142 -0.337500 0.163553
v 0.101081 -0.337500 0.139126
v 0.139126 -0.337500 0.101081
v 0.163553 -0.337500 0.053142
v 0.171970 -0.337500 0.000000
v 0.202970 0.146786 0.009051
v 0.188783 0.145998 -0.018836
v 0.166685 0.144770 -0.040968
v 0.138841 0.143224 -0.055177
v 0.107975 0.141509 -0.060073
v 0.077110 0.139795 -0.055177
v 0.049265 0.138248 -0.040968
v 0.027168 0.137021 -0.018836
v 0.012981 0.136233 0.009051
v 0.008092 0.135961 0.039964
v 0.012981 0.136233 0.070877
v 0.027168 0.137021 0.098765
v 0.049265 0.138248 0.120896
v 0.077110 0.139795 0.135105
v 0.107975 0.141509 0.140001
v 0.138841 0.143224 0.135105
v 0.166685 0.144770 0.120896
v 0.188783 0.145998 0.098765
v 0.202970 0.146786 0.070877
v 0.207859 0.147057 0.039964
v 0.000000 -0.337500 0.000000
v -0.114162 0.839514 0.007766
v -0.121999 0.835698 -0.009342
v -0.134205 0.829755 -0.022918
v -0.149587 0.822266 -0.031635
v -0.166637 0.813964 -0.034639
v -0.183687 0.805662 -0.031635
v -0.199068 0.798173 -0.022918
v -0.211275 0.792230 -0.009342
v -0.219112 0.788414 0.007766
v -0.221813 0.787099 0.026730
v -0.219112 0.788414 0.045694
v -0.211275 0.792230 0.062802
v -0.199069 0.798173 0.076378
v -0.183687 0.805662 0.085095
v -0.166637 0.813964 0.088099
v -0.149587 0.822266 0.085095
v -0.134205 0.829755 0.076378
v -0.121999 0.835698 0.062802
v -0.114162 0.839514 0.045694
v -0.111461 0.840829 0.026730
v -0.000000 -0.274277 0.189407
v -0.058530 -0.274277 0.180137
v -0.111331 -0.274277 0.153234
v -0.153234 -0.274277 0.111331
v -0.180137 -0.274277 0.058530
v -0.189407 -0.274277 0.000000
v -0.180137 -0.274277 -0.058530
v -0.153234 -0.274277 -0.111331
v -0.111331 -0.274277 -0.153234
v -0.058530 -0.274277 -0.180137
v 0.000000 -0.274277 -0.189407
v 0.058530 -0.274277 -0.180137
v 0.111331 -0.274277 -0.153234
v 0.153234 -0.274277 -0.111331
v 0.180137 -0.274277 -0.058530
v 0.189407 -0.274277 0.000000
v 0.180137 -0.274277 0.058530
v 0.153234 -0.274277 0.111331
v 0.111331 -0.274277 0.153234
v 0.058530 -0.274277 0.180137
v -0.089374 1.300129 0.085175
v -0.093442 1.301184 0.076925
v -0.099780 1.302826 0.070380
v -0.107765 1.304895 0.066177
v -0.116618 1.307189 0.064729
v -0.125470 1.309483 0.066177
v -0.133456 1.311553 0.070380
v -0.139793 1.313195 0.076928
v -0.143862 1.314249 0.085176
v -0.145264 1.314613 0.094320
v -0.143862 1.314249 0.103467
v -0.139793 1.313195 0.111716
v -0.133456 1.311553 0.118262
v -0.125470 1.309483 0.122466
v -0.116617 1.307189 0.123914
v -0.107765 1.304895 0.122465
v -0.099780 1.302826 0.118262
v -0.093442 1.301183 0.111714
v -0.089373 1.300129 0.103466
v -0.087971 1.299765 0.094322
v 0.098834 1.873809 0.253797
v 0.097245 1.874221 0.250577
v 0.088198 1.876566 0.257368
v 0.094771 1.874862 0.248020
v 0.091654 1.875671 0.246380
v 0.088197 1.876566 0.245815
v 0.084741 1.877461 0.246378
v 0.081623 1.878269 0.248021
v 0.079149 1.878910 0.250578
v 0.077561 1.879323 0.253796
v 0.077014 1.879464 0.257365
v 0.077561 1.879323 0.260939
v 0.079149 1.878910 0.264158
v 0.081623 1.878269 0.266713
v 0.084742 1.877462 0.268357
v 0.088199 1.876567 0.268922
v 0.091655 1.875671 0.268355
v 0.094771 1.874863 0.266715
v 0.097246 1.874221 0.264158
v 0.098835 1.873810 0.260939
v 0.099382 1.873668 0.257369
vt 0.984943 0.418542
vt 0.986279 0.443337
vt 0.956353 0.447386
vt 0.954968 0.420392
vt 0.989015 0.468065
vt 0.957684 0.475119
vt 0.768369 0.383106
vt 0.769500 0.368829
vt 0.985251 0.393815
vt 0.955705 0.394314
vt 0.766821 0.397110
vt 0.432545 0.357925
vt 0.431319 0.349420
vt 0.770200 0.354324
vt 0.985697 0.369297
vt 0.955396 0.368627
vt 0.434274 0.366056
vt 0.217570 0.388164
vt 0.219187 0.376930
vt 0.430696 0.340582
vt 0.770377 0.339735
vt 0.987165 0.345155
vt 0.957546 0.343748
vt 0.215721 0.399420
vt 0.002767 0.348872
vt 0.002806 0.347377
vt 0.220644 0.365706
vt 0.430691 0.331524
vt 0.770028 0.325145
vt 0.988848 0.321214
vt 0.958798 0.319420
vt 0.002639 0.350368
vt 0.002970 0.347147
vt 0.220995 0.355499
vt 0.431257 0.322392
vt 0.769138 0.310686
vt 0.003084 0.346911
vt 0.220869 0.345701
vt 0.432734 0.313320
vt 0.003169 0.346667
vt 0.221189 0.336259
vt 0.003242 0.346415
vt 0.434609 0.304417
vt 0.221175 0.326913
vt 0.987253 0.110596
vt 0.993146 0.133958
vt 0.963374 0.138596
vt 0.958936 0.116354
vt 0.996850 0.157613
vt 0.968032 0.160636
vt 0.752731 0.191102
vt 0.750466 0.175593
vt 0.979538 0.087946
vt 0.950888 0.094607
vt 0.998897 0.181482
vt 0.968476 0.183095
vt 0.755005 0.206801
vt 0.440966 0.243742
vt 0.439108 0.235129
vt 0.748226 0.160548
vt 0.999023 0.204871
vt 0.969247 0.205317
vt 0.757302 0.222500
vt 0.442063 0.252485
vt 0.218357 0.262579
vt 0.216727 0.252771
vt 0.436111 0.226798
vt 0.997794 0.228379
vt 0.968460 0.227634
vt 0.759607 0.237924
vt 0.442354 0.261261
vt 0.219586 0.272092
vt 0.003775 0.344211
vt 0.003612 0.343970
vt 0.213889 0.242922
vt 0.761828 0.252957
vt 0.441842 0.269983
vt 0.220483 0.281392
vt 0.003844 0.344476
vt 0.003337 0.343765
vt 0.432545 0.218734
vt 0.210128 0.232972
vt 0.440605 0.278604
vt 0.221101 0.290546
vt 0.003838 0.344756
vt 0.221475 0.299626
vt 0.003777 0.345041
vt 0.003681 0.345327
vt 0.500202 0.401017
vt 0.511741 0.423663
vt 0.434480 0.448767
vt 0.515717 0.448767
vt 0.482230 0.383044
vt 0.511741 0.473870
vt 0.459584 0.371505
vt 0.500202 0.496517
vt 0.434480 0.367529
vt 0.482230 0.514489
vt 0.409376 0.371505
vt 0.459584 0.526028
vt 0.386730 0.383044
vt 0.434480 0.530004
vt 0.368758 0.401017
vt 0.409376 0.526028
vt 0.357219 0.423663
vt 0.386730 0.514489
vt 0.353243 0.448767
vt 0.368758 0.496517
vt 0.357219 0.473870
vt 0.008238 0.353223
vt 0.009784 0.353986
vt 0.006524 0.358331
vt 0.011012 0.355174
vt 0.006523 0.352961
vt 0.011799 0.356670
vt 0.004808 0.353224
vt 0.012071 0.358330
vt 0.003263 0.353987
vt 0.011801 0.359989
vt 0.002036 0.355175
vt 0.011012 0.361487
vt 0.001248 0.356672
vt 0.009785 0.362675
vt 0.000977 0.358330
vt 0.008240 0.363437
vt 0.001248 0.359990
vt 0.006526 0.363700
vt 0.002038 0.361488
vt 0.004810 0.363438
vt 0.003264 0.362675
vt 0.946170 0.000977
vt 0.952039 0.023207
vt 0.921617 0.029404
vt 0.911730 0.006627
vt 0.961589 0.044628
vt 0.932896 0.051153
vt 0.741388 0.118507
vt 0.738894 0.105268
vt 0.970794 0.066342
vt 0.941551 0.073010
vt 0.743734 0.132031
vt 0.424295 0.203241
vt 0.420041 0.195536
vt 0.745981 0.146031
vt 0.428543 0.210917
vt 0.200602 0.212920
vt 0.194851 0.202869
vt 0.206047 0.223035
vt 0.001710 0.342057
vt 0.000977 0.340610
vt 0.002354 0.343539
vt 0.002942 0.343604
vt 0.995782 0.251653
vt 0.965171 0.250169
vt 0.993271 0.274739
vt 0.963699 0.272730
vt 0.763983 0.267638
vt 0.990832 0.297956
vt 0.960084 0.295815
vt 0.765972 0.282023
vt 0.438811 0.287148
vt 0.767731 0.296339
vt 0.436716 0.295713
vt 0.221619 0.308689
vt 0.221528 0.317776
vt 0.003565 0.345609
vt 0.003439 0.345886
vt 0.003311 0.346156
vn 0.916824 -0.265884 -0.297893
vn 0.779897 -0.265884 -0.566628
vn 0.797560 0.012884 -0.603102
vn 0.945845 -0.041886 -0.321905
vn 0.566628 -0.265884 -0.779897
vn 0.567014 0.079781 -0.819836
vn 0.297894 -0.265884 -0.916823
vn 0.281276 0.150926 -0.947684
vn 0.000000 -0.265884 -0.964005
vn -0.025121 0.218146 -0.975593
vn -0.297894 -0.265884 -0.916823
vn -0.318246 0.274756 -0.907319
vn -0.566628 -0.265884 -0.779896
vn -0.571269 0.316474 -0.757295
vn -0.779897 -0.265884 -0.566628
vn -0.766233 0.341180 -0.544503
vn -0.916823 -0.265884 -0.297894
vn -0.892043 0.348098 -0.288247
vn -0.964005 -0.265884 0.000000
vn -0.941449 0.337081 -0.007121
vn -0.916823 -0.265884 0.297894
vn -0.909250 0.308364 0.279599
vn -0.779896 -0.265884 0.566628
vn -0.792884 0.262891 0.549748
vn -0.566628 -0.265884 0.779897
vn -0.595524 0.203115 0.777236
vn -0.297894 -0.265884 0.916823
vn -0.330390 0.133840 0.934307
vn 0.000000 -0.265884 0.964005
vn -0.023047 0.062345 0.997789
vn 0.297894 -0.265884 0.916823
vn 0.291631 -0.002789 0.956527
vn 0.566628 -0.265884 0.779896
vn 0.577188 -0.053703 0.814843
vn 0.779897 -0.265884 0.566628
vn 0.803006 -0.084833 0.589902
vn 0.916823 -0.265884 0.297894
vn 0.947362 -0.093290 0.306271
vn 0.964005 -0.265884 0.000001
vn 0.996884 -0.078492 -0.007892
vn 0.000000 -1.000000 0.000000
vn 0.000000 -1.000000 0.000000
vn 0.000000 -1.000000 -0.000000
vn 0.000000 -1.000000 0.000000
vn 0.000000 -1.000000 0.000000
vn 0.000000 -1.000000 0.000000
vn 0.000000 -1.000000 0.000000
vn 0.000000 -1.000000 0.000000
vn 0.000000 -1.000000 -0.000000
vn 0.000000 -1.000000 -0.000000
vn 0.000000 -1.000000 0.000000
vn 0.000000 -1.000000 0.000000
vn 0.000000 -1.000000 0.000000
vn 0.000000 -1.000000 0.000000
vn 0.000000 -1.000000 -0.000000
vn 0.000000 -1.000000 -0.000000
vn 0.000000 -1.000000 0.000000
vn 0.000000 -1.000000 0.000000
vn 0.000000 -1.000000 0.000000
vn 0.000000 -1.000000 0.000000
vn 0.000000 -1.000000 0.000000
vn 0.250837 0.968029 -0.000045
vn 0.250881 0.968018 0.000000
vn 0.250839 0.968029 -0.000040
vn 0.250966 0.967996 0.000045
vn 0.250844 0.968028 0.000034
vn 0.250696 0.968066 -0.000014
vn 0.250734 0.968056 -0.000014
vn 0.250826 0.968032 -0.000079
vn 0.250917 0.968009 -0.000203
vn 0.250887 0.968016 -0.000045
vn 0.250833 0.968031 0.000045
vn 0.250895 0.968014 0.000045
vn 0.250900 0.968013 0.000090
vn 0.250745 0.968053 -0.000045
vn 0.250594 0.968092 -0.000124
vn 0.250785 0.968043 -0.000140
vn 0.250998 0.967988 -0.000118
vn 0.250909 0.968011 -0.000079
vn 0.250843 0.968028 -0.000023
vn 0.250840 0.968029 -0.000045
vn 0.250842 0.968028 -0.000090
vn 0.934717 0.198515 -0.294780
vn 0.799250 0.201180 -0.566327
vn 0.767030 0.274170 -0.580083
vn 0.903917 0.299239 -0.305596
vn 0.588645 0.198424 -0.783662
vn 0.552168 0.227322 -0.802144
vn 0.322354 0.190881 -0.927174
vn 0.277687 0.161373 -0.947021
vn 0.023916 0.179188 -0.983524
vn -0.028445 0.082307 -0.996201
vn -0.280355 0.164024 -0.945779
vn -0.332145 -0.000763 -0.943228
vn -0.562094 0.146307 -0.814030
vn -0.600187 -0.077691 -0.796078
vn -0.792063 0.127336 -0.597011
vn -0.806738 -0.139881 -0.574114
vn -0.943178 0.108790 -0.313975
vn -0.935861 -0.181575 -0.301986
vn -0.995687 0.092630 0.005289
vn -0.979841 -0.199720 -0.004814
vn -0.942497 0.080829 0.324293
vn -0.936302 -0.193259 0.293239
vn -0.791268 0.074995 0.606853
vn -0.806842 -0.162739 0.567911
vn -0.561788 0.076024 0.823780
vn -0.598374 -0.110592 0.793548
vn -0.280676 0.083934 0.956126
vn -0.326398 -0.041754 0.944310
vn 0.023350 0.097884 0.994924
vn -0.017412 0.036393 0.999186
vn 0.322102 0.116305 0.939534
vn 0.293207 0.115205 0.949082
vn 0.589021 0.137086 0.796406
vn 0.568997 0.186484 0.800916
vn 0.800063 0.157813 0.578786
vn 0.781054 0.243845 0.574886
vn 0.935383 0.176115 0.306663
vn 0.911801 0.283149 0.297398
vn 0.981755 0.190065 0.005798
vn 0.953285 0.302036 -0.004652
vn 0.816364 0.002918 -0.577531
vn 0.950381 -0.078666 -0.300977
vn 0.593477 0.089311 -0.799880
vn 0.303616 0.169404 -0.937614
vn -0.016206 0.232864 -0.972374
vn -0.325073 0.273629 -0.905238
vn -0.590419 0.290636 -0.752952
vn -0.792851 0.285977 -0.538149
vn -0.922903 0.262480 -0.281697
vn -0.974981 0.222281 -0.001549
vn -0.944032 0.166861 0.284537
vn -0.825885 0.098096 0.555240
vn -0.621847 0.020007 0.782883
vn -0.345603 -0.060185 0.936449
vn -0.027040 -0.132450 0.990821
vn 0.292982 -0.186703 0.937712
vn 0.575963 -0.216212 0.788365
vn 0.795037 -0.218517 0.565832
vn 0.935516 -0.194415 0.294978
vn 0.989213 -0.146478 -0.001453
vn 0.819917 -0.102141 -0.563297
vn 0.932961 -0.223020 -0.282569
vn 0.622542 0.031107 -0.781968
vn 0.366154 0.161409 -0.916449
vn 0.080007 0.275860 -0.957862
vn -0.209365 0.365270 -0.907053
vn -0.478014 0.422751 -0.769925
vn -0.702823 0.442881 -0.556683
vn -0.861283 0.421966 -0.283084
vn -0.932737 0.359643 0.025644
vn -0.905245 0.261363 0.334994
vn -0.781737 0.138713 0.607985
vn -0.580390 0.006957 0.814309
vn -0.327572 -0.119502 0.937238
vn -0.050250 -0.229473 0.972017
vn 0.227977 -0.315124 0.921262
vn 0.487038 -0.370851 0.790736
vn 0.707152 -0.391883 0.588527
vn 0.867719 -0.374412 0.326925
vn 0.948064 -0.316986 0.026350
s 1
g pCylinder1
usemtl initialShadingGroup
f 1/1/1 2/2/2 75/3/3 76/4/4
f 2/2/2 3/5/5 74/6/6 75/3/3
f 3/131/5 4/132/7 73/133/8 74/134/6
f 4/132/7 5/135/9 72/136/10 73/133/8
f 5/135/9 6/139/11 71/140/12 72/136/10
f 6/139/11 7/53/13 70/54/14 71/140/12
f 7/53/13 8/45/15 69/48/16 70/54/14
f 8/45/15 9/46/17 68/47/18 69/48/16
f 9/46/17 10/49/19 67/50/20 68/47/18
f 10/49/19 11/55/21 66/56/22 67/50/20
f 11/55/21 12/61/23 65/62/24 66/56/22
f 12/61/23 13/68/25 64/69/26 65/62/24
f 13/68/25 14/153/27 63/154/28 64/69/26
f 14/153/27 15/155/29 62/156/30 63/154/28
f 15/155/29 16/158/31 81/159/32 62/156/30
f 16/158/31 17/30/33 80/31/34 81/159/32
f 17/30/33 18/22/35 79/23/36 80/31/34
f 18/22/35 19/15/37 78/16/38 79/23/36
f 19/15/37 20/9/39 77/10/40 78/16/38
f 20/9/39 1/1/1 76/4/4 77/10/40
s 2
f 2/89/41 1/90/42 41/91/43
f 3/93/44 2/89/41 41/91/43
f 4/95/45 3/93/44 41/91/43
f 5/97/46 4/95/45 41/91/43
f 6/99/47 5/97/46 41/91/43
f 7/101/48 6/99/47 41/91/43
f 8/103/49 7/101/48 41/91/43
f 9/105/50 8/103/49 41/91/43
f 10/107/51 9/105/50 41/91/43
f 11/109/52 10/107/51 41/91/43
f 12/108/53 11/109/52 41/91/43
f 13/106/54 12/108/53 41/91/43
f 14/104/55 13/106/54 41/91/43
f 15/102/56 14/104/55 41/91/43
f 16/100/57 15/102/56 41/91/43
f 17/98/58 16/100/57 41/91/43
f 18/96/59 17/98/58 41/91/43
f 19/94/60 18/96/59 41/91/43
f 20/92/61 19/94/60 41/91/43
f 1/90/42 20/92/61 41/91/43
s 3
f 102/110/62 103/111/63 104/112/64
f 103/111/63 105/113/65 104/112/64
f 105/113/65 106/115/66 104/112/64
f 106/115/66 107/117/67 104/112/64
f 107/117/67 108/119/68 104/112/64
f 108/119/68 109/121/69 104/112/64
f 109/121/69 110/123/70 104/112/64
f 110/123/70 111/125/71 104/112/64
f 111/125/71 112/127/72 104/112/64
f 112/127/72 113/129/73 104/112/64
f 113/129/73 114/130/74 104/112/64
f 114/130/74 115/128/75 104/112/64
f 115/128/75 116/126/76 104/112/64
f 116/126/76 117/124/77 104/112/64
f 117/124/77 118/122/78 104/112/64
f 118/122/78 119/120/79 104/112/64
f 119/120/79 120/118/80 104/112/64
f 120/118/80 121/116/81 104/112/64
f 121/116/81 122/114/82 104/112/64
f 122/114/82 102/110/62 104/112/64
s 1
f 21/8/83 22/7/84 43/12/85 42/13/86
f 22/7/84 23/11/87 44/17/88 43/12/85
f 23/138/87 24/137/89 45/142/90 44/143/88
f 24/137/89 25/141/91 46/145/92 45/142/90
f 25/141/91 26/144/93 47/81/94 46/145/92
f 26/144/93 27/60/95 48/67/96 47/81/94
f 27/60/95 28/52/97 49/59/98 48/67/96
f 28/52/97 29/51/99 50/58/100 49/59/98
f 29/51/99 30/57/101 51/64/102 50/58/100
f 30/57/101 31/63/103 52/71/104 51/64/102
f 31/63/103 32/70/105 53/77/106 52/71/104
f 32/70/105 33/76/107 54/83/108 53/77/106
f 33/76/107 34/157/109 55/161/110 54/83/108
f 34/157/109 35/160/111 56/163/112 55/161/110
f 35/160/111 36/162/113 57/43/114 56/163/112
f 36/162/113 37/36/115 58/39/116 57/43/114
f 37/36/115 38/29/117 59/35/118 58/39/116
f 38/29/117 39/21/119 60/28/120 59/35/118
f 39/21/119 40/14/121 61/20/122 60/28/120
f 40/14/121 21/8/83 42/13/86 61/20/122
f 63/154/28 62/156/30 35/160/111 34/157/109
f 64/69/26 63/154/28 34/157/109 33/76/107
f 65/62/24 64/69/26 33/76/107 32/70/105
f 66/56/22 65/62/24 32/70/105 31/63/103
f 67/50/20 66/56/22 31/63/103 30/57/101
f 68/47/18 67/50/20 30/57/101 29/51/99
f 69/48/16 68/47/18 29/51/99 28/52/97
f 70/54/14 69/48/16 28/52/97 27/60/95
f 71/140/12 70/54/14 27/60/95 26/144/93
f 72/136/10 71/140/12 26/144/93 25/141/91
f 73/133/8 72/136/10 25/141/91 24/137/89
f 74/134/6 73/133/8 24/137/89 23/138/87
f 75/3/3 74/6/6 23/11/87 22/7/84
f 76/4/4 75/3/3 22/7/84 21/8/83
f 77/10/40 76/4/4 21/8/83 40/14/121
f 78/16/38 77/10/40 40/14/121 39/21/119
f 79/23/36 78/16/38 39/21/119 38/29/117
f 80/31/34 79/23/36 38/29/117 37/36/115
f 81/159/32 80/31/34 37/36/115 36/162/113
f 62/156/30 81/159/32 36/162/113 35/160/111
f 42/13/86 43/12/85 83/18/123 82/19/124
f 43/12/85 44/17/88 84/24/125 83/18/123
f 44/143/88 45/142/90 85/146/126 84/147/125
f 45/142/90 46/145/92 86/148/127 85/146/126
f 46/145/92 47/81/94 87/82/128 86/148/127
f 47/81/94 48/67/96 88/75/129 87/82/128
f 48/67/96 49/59/98 89/66/130 88/75/129
f 49/59/98 50/58/100 90/65/131 89/66/130
f 50/58/100 51/64/102 91/72/132 90/65/131
f 51/64/102 52/71/104 92/78/133 91/72/132
f 52/71/104 53/77/106 93/84/134 92/78/133
f 53/77/106 54/83/108 94/86/135 93/84/134
f 54/83/108 55/161/110 95/164/136 94/86/135
f 55/161/110 56/163/112 96/165/137 95/164/136
f 56/163/112 57/43/114 97/44/138 96/165/137
f 57/43/114 58/39/116 98/41/139 97/44/138
f 58/39/116 59/35/118 99/38/140 98/41/139
f 59/35/118 60/28/120 100/34/141 99/38/140
f 60/28/120 61/20/122 101/27/142 100/34/141
f 61/20/122 42/13/86 82/19/124 101/27/142
f 82/19/124 83/18/123 103/25/143 102/26/144
f 83/18/123 84/24/125 105/32/145 103/25/143
f 84/147/125 85/146/126 106/149/146 105/150/145
f 85/146/126 86/148/127 107/151/147 106/149/146
f 86/148/127 87/82/128 108/152/148 107/151/147
f 87/82/128 88/75/129 109/80/149 108/152/148
f 88/75/129 89/66/130 110/74/150 109/80/149
f 89/66/130 90/65/131 111/73/151 110/74/150
f 90/65/131 91/72/132 112/79/152 111/73/151
f 91/72/132 92/78/133 113/85/153 112/79/152
f 92/78/133 93/84/134 114/87/154 113/85/153
f 93/84/134 94/86/135 115/88/155 114/87/154
f 94/86/135 95/164/136 116/166/156 115/88/155
f 95/164/136 96/165/137 117/167/157 116/166/156
f 96/165/137 97/44/138 118/168/158 117/167/157
f 97/44/138 98/41/139 119/42/159 118/168/158
f 98/41/139 99/38/140 120/40/160 119/42/159
f 99/38/140 100/34/141 121/37/161 120/40/160
f 100/34/141 101/27/142 122/33/162 121/37/161
f 101/27/142 82/19/124 102/26/144 122/33/162
