# This file uses centimeters as units for non-parametric coordinates.

mtllib tail_obj_bones.mtl
g skinCluster1Set tweakSet1
v -0.728483 -0.749704 -0.351250
v -0.728483 -0.749704 0.351250
v 0.810805 -0.749400 0.000000
v 0.564601 1.019183 -0.708240
v -0.813808 1.040407 -0.393043
v 0.905044 1.013962 0.000000
v 0.653380 3.339684 -0.708240
v -0.706860 3.497127 -0.393043
v -0.706860 3.497127 0.393043
v 0.989343 3.300857 0.000000
v 1.306465 9.772284 -0.883154
v 0.713458 9.705783 0.393039
v 2.137987 10.971456 0.000000
v -0.480252 12.715796 -0.708070
v -2.415295 11.377688 -0.883426
v -0.178679 11.361713 -0.393082
v -1.445141 12.888288 -0.000000
v -2.160615 10.792033 -0.393406
v 0.208987 8.999107 -0.706687
v -0.611791 9.567270 -0.397149
v -0.243621 9.294079 0.889116
v 0.399359 8.859912 0.000001
v -3.196484 11.408818 -0.707218
v -2.724906 9.534909 -0.884161
v -2.647315 8.577233 -0.705895
v -1.537810 8.657295 0.884626
v -0.243615 9.294077 -0.889111
v -0.698676 10.897082 -0.847183
v -0.179124 -0.749613 -0.789253
v 0.565568 0.000339 -0.708240
v -0.179124 -0.749613 0.789253
v 0.505926 -0.749472 0.632931
v -1.117901 10.683189 -0.379936
v 0.043789 11.311405 -0.000002
v -0.200362 1.030946 -0.883160
v -0.200362 1.030946 0.883160
v -0.101517 3.427014 -0.883160
v -0.101517 3.427014 0.883160
v 1.854953 10.845864 -0.708240
v 1.306465 9.772284 0.883154
v -1.555710 7.849311 0.000002
v -3.495953 9.203072 0.000002
v 0.505926 -0.749472 -0.632931
v -0.189731 11.176431 0.669952
v 0.208983 8.999110 0.706689
v -0.594190 8.241435 0.706420
v -2.857884 11.837200 0.707521
v 1.809962 8.859743 0.708251
v 0.564601 1.019183 0.708240
v -3.452501 10.094754 0.706131
v -2.665084 11.047665 0.883554
v -0.480252 12.715796 0.708072
v 1.203807 11.773586 0.708206
v 0.653379 3.339684 0.708240
v -1.117903 10.683187 0.379956
v -2.257586 9.676290 0.394003
v -2.036234 11.020167 0.393300
v -0.672257 11.493163 0.393114
v 0.715700 10.318645 -0.393041
v -0.813808 1.040407 0.393043
v -0.618308 12.049641 0.883234
v -0.783129 11.192773 -0.630691
v -0.355237 11.432012 -0.006070
v -1.042761 11.056759 -0.291333
v -0.470424 11.365568 0.521075
v -1.028906 11.064600 0.285278
vt 0.888117 0.085364
vt 0.851450 0.085364
vt 0.853400 0.001860
vt 0.851450 0.199959
vt 0.828589 0.084918
vt 0.886167 0.001860
vt 0.828589 0.196682
vt 0.888117 0.199959
vt 0.832970 0.001860
vt 0.910978 0.084918
vt 0.828590 0.493601
vt 0.888116 0.494455
vt 0.910978 0.196682
vt 0.906597 0.001860
vt 0.851451 0.532400
vt 0.851449 0.609930
vt 0.888120 0.642083
vt 0.910977 0.493601
vt 0.828577 0.728946
vt 0.851434 0.725041
vt 0.910981 0.651059
vt 0.888129 0.712619
vt 0.910996 0.743439
vt 0.888161 0.750809
vt 0.828543 0.772816
vt 0.001993 0.084363
vt 0.005505 0.001860
vt 0.035028 0.084116
vt 0.068063 0.036843
vt 0.035028 0.190778
vt 0.035028 0.001860
vt 0.068063 0.084363
vt 0.068063 0.192596
vt 0.001993 0.192596
vt 0.064550 0.001860
vt 0.068063 0.536311
vt 0.001992 0.448394
vt 0.035028 0.537272
vt 0.068055 0.662277
vt 0.001994 0.581528
vt 0.035028 0.701713
vt 0.002000 0.662277
vt 0.068015 0.766489
vt 0.002026 0.749388
vt 0.002091 0.791568
vt 0.035028 0.812955
vt 0.742068 0.795559
vt 0.777512 0.795559
vt 0.778315 0.860802
vt 0.799307 0.802108
vt 0.718319 0.879003
vt 0.801262 0.879003
vt 0.907216 0.796585
vt 0.908929 0.888368
vt 0.875966 0.800308
vt 0.875966 0.898930
vt 0.900271 0.781692
vt 0.908917 0.914141
vt 0.843004 0.888369
vt 0.875683 0.783520
vt 0.836450 0.788502
vt 0.846548 0.776807
vt 0.640402 0.815989
vt 0.666020 0.795559
vt 0.697966 0.802851
vt 0.697966 0.861896
vt 0.712183 0.832373
vt 0.640402 0.848757
vt 0.666020 0.869187
vt 0.583186 0.834792
vt 0.605404 0.805657
vt 0.618288 0.821486
vt 0.613450 0.795559
vt 0.617554 0.848382
vt 0.634266 0.817353
vt 0.634266 0.852798
vt 0.589281 0.859380
vt 0.586806 0.866324
vt 0.830265 0.795559
vt 0.830315 0.932069
vt 0.807430 0.864434
vt 0.807397 0.801211
vt 0.951145 0.168958
vt 0.951145 0.072527
vt 0.984071 0.119565
vt 0.918208 0.044607
vt 0.984132 0.001860
vt 0.984107 0.242069
vt 0.918195 0.207362
vt 0.951145 0.249812
vt 0.974914 0.783563
vt 0.998008 0.917213
vt 0.915295 0.776807
vt 0.938011 0.904067
vt 0.915064 0.917213
vt 0.363204 0.769139
vt 0.360403 0.804122
vt 0.328457 0.804122
vt 0.363149 0.721620
vt 0.327477 0.721064
vt 0.367276 0.613386
vt 0.332085 0.609301
vt 0.391388 0.312381
vt 0.430721 0.269672
vt 0.330139 0.077036
vt 0.409169 0.143706
vt 0.337109 0.039494
vt 0.219404 0.001860
vt 0.254196 0.033167
vt 0.299637 0.080941
vt 0.096901 0.045697
vt 0.113791 0.068669
vt 0.074298 0.145564
vt 0.718575 0.084918
vt 0.719555 0.001860
vt 0.754247 0.084363
vt 0.751501 0.001860
vt 0.758374 0.192596
vt 0.723184 0.196682
vt 0.782487 0.493601
vt 0.809267 0.448394
vt 0.820775 0.581528
vt 0.768726 0.651059
vt 0.800267 0.662277
vt 0.745524 0.749388
vt 0.707414 0.743439
vt 0.685460 0.791568
vt 0.570904 0.772156
vt 0.522705 0.786058
vt 0.487999 0.760286
vt 0.504889 0.737314
vt 0.438752 0.668503
vt 0.638539 0.750809
vt 0.486213 0.653870
vt 0.553439 0.795559
vt 0.577051 0.826308
vt 0.562158 0.823832
vn 0.221021 -0.114851 -0.968483
vn 0.221021 -0.114851 -0.968483
vn 0.221021 -0.114851 -0.968483
vn -0.998866 -0.047610 -0.000000
vn -0.998866 -0.047610 -0.000000
vn -0.998866 -0.047610 -0.000000
vn -0.623932 -0.047950 -0.780007
vn -0.623932 -0.047950 -0.780007
vn -0.623932 -0.047950 -0.780007
vn -0.622663 -0.048616 -0.780978
vn -0.622663 -0.048616 -0.780978
vn -0.622663 -0.048616 -0.780978
vn -0.622663 -0.048616 0.780978
vn -0.622663 -0.048616 0.780978
vn -0.622663 -0.048616 0.780978
vn -0.623932 -0.047950 0.780006
vn -0.623932 -0.047950 0.780006
vn -0.623932 -0.047950 0.780006
vn -0.998866 -0.047610 -0.000000
vn -0.998866 -0.047610 -0.000000
vn -0.998866 -0.047610 -0.000000
vn 0.221935 -0.048714 0.973844
vn 0.221935 -0.048714 0.973844
vn 0.221935 -0.048714 0.973844
vn 0.222215 -0.048835 0.973774
vn 0.222215 -0.048835 0.973774
vn 0.222215 -0.048835 0.973774
vn 0.736415 0.576034 0.354793
vn 0.736415 0.576034 0.354793
vn 0.736415 0.576034 0.354793
vn 0.900090 -0.048298 0.433020
vn 0.900090 -0.048298 0.433020
vn 0.900090 -0.048298 0.433020
vn 0.962338 -0.253267 -0.098800
vn 0.962338 -0.253267 -0.098800
vn 0.962338 -0.253267 -0.098800
vn 0.895008 -0.114490 -0.431107
vn 0.895008 -0.114490 -0.431107
vn 0.895008 -0.114490 -0.431107
vn 0.901283 0.000855 -0.433231
vn 0.901283 0.000855 -0.433231
vn 0.901283 0.000855 -0.433231
vn 0.108047 0.000102 -0.994146
vn 0.108047 0.000102 -0.994146
vn 0.108047 0.000102 -0.994146
vn 0.221935 -0.048714 -0.973844
vn 0.221935 -0.048714 -0.973844
vn 0.221935 -0.048714 -0.973844
vn 0.000196 -1.000000 0.000037
vn 0.000196 -1.000000 0.000037
vn 0.000196 -1.000000 0.000037
vn 0.000196 -1.000000 -0.000036
vn 0.000196 -1.000000 -0.000036
vn 0.000196 -1.000000 -0.000036
vn 0.000188 -1.000000 -0.000000
vn 0.000188 -1.000000 -0.000000
vn 0.000188 -1.000000 -0.000000
vn 0.000188 -1.000000 -0.000000
vn 0.000188 -1.000000 -0.000000
vn 0.000188 -1.000000 -0.000000
vn -0.475473 0.879659 -0.011206
vn -0.475473 0.879659 -0.011206
vn -0.475473 0.879659 -0.011206
vn -0.476572 0.879110 0.006672
vn -0.476572 0.879110 0.006672
vn -0.476572 0.879110 0.006672
vn -0.478951 0.877842 -0.000431
vn -0.478951 0.877842 -0.000431
vn -0.478951 0.877842 -0.000431
vn -0.627112 0.027300 -0.778451
vn -0.627112 0.027300 -0.778451
vn -0.627112 0.027300 -0.778451
vn -0.623749 0.025732 -0.781201
vn -0.623749 0.025732 -0.781201
vn -0.623749 0.025732 -0.781201
vn -0.623749 0.025732 0.781201
vn -0.623749 0.025732 0.781201
vn -0.623749 0.025732 0.781201
vn -0.627112 0.027300 0.778451
vn -0.627112 0.027300 0.778451
vn -0.627112 0.027300 0.778451
vn -0.999054 0.043492 0.000000
vn -0.999054 0.043492 0.000000
vn -0.999054 0.043492 0.000000
vn -0.999054 0.043492 -0.000000
vn -0.999054 0.043492 -0.000000
vn -0.999054 0.043492 -0.000000
vn 0.224707 -0.009270 0.974382
vn 0.224707 -0.009270 0.974382
vn 0.224707 -0.009270 0.974382
vn 0.222779 -0.008523 0.974832
vn 0.222779 -0.008523 0.974832
vn 0.222779 -0.008523 0.974832
vn 0.902228 -0.034518 0.429877
vn 0.902228 -0.034518 0.429877
vn 0.902228 -0.034518 0.429877
vn 0.900688 -0.033201 0.433196
vn 0.900688 -0.033201 0.433196
vn 0.900688 -0.033201 0.433196
vn 0.902293 -0.033260 -0.429839
vn 0.902293 -0.033260 -0.429839
vn 0.902293 -0.033260 -0.429839
vn 0.900646 -0.034457 -0.433185
vn 0.900646 -0.034457 -0.433185
vn 0.900646 -0.034457 -0.433185
vn 0.224706 -0.009270 -0.974382
vn 0.224706 -0.009270 -0.974382
vn 0.224706 -0.009270 -0.974382
vn 0.222779 -0.008523 -0.974832
vn 0.222779 -0.008523 -0.974832
vn 0.222779 -0.008523 -0.974832
vn -0.613817 0.136204 -0.777610
vn -0.613817 0.136204 -0.777610
vn -0.613817 0.136204 -0.777610
vn -0.640024 0.142018 0.755116
vn -0.640024 0.142018 0.755116
vn -0.640024 0.142018 0.755116
vn -0.613172 0.140272 0.777395
vn -0.613172 0.140272 0.777395
vn -0.613172 0.140272 0.777395
vn -0.974818 0.223003 0.000000
vn -0.974818 0.223003 0.000000
vn -0.974818 0.223003 0.000000
vn 0.220100 -0.048838 0.974254
vn 0.220100 -0.048838 0.974254
vn 0.220100 -0.048838 0.974254
vn 0.243829 -0.051090 0.968472
vn 0.243829 -0.051090 0.968472
vn 0.243829 -0.051090 0.968472
vn 0.883900 -0.185199 0.429444
vn 0.883900 -0.185199 0.429444
vn 0.883900 -0.185199 0.429444
vn 0.220099 -0.048838 -0.974254
vn 0.220099 -0.048838 -0.974254
vn 0.220099 -0.048838 -0.974254
vn 0.420255 -0.067274 -0.904909
vn 0.420255 -0.067274 -0.904909
vn 0.420255 -0.067274 -0.904909
vn -0.967187 0.201697 0.154493
vn -0.967187 0.201697 0.154493
vn -0.967187 0.201697 0.154493
vn -0.566969 0.118236 -0.815210
vn -0.566969 0.118236 -0.815210
vn -0.566969 0.118236 -0.815210
vn 0.891207 -0.142663 -0.430578
vn 0.891207 -0.142663 -0.430578
vn 0.891207 -0.142663 -0.430578
vn 0.484563 0.100815 0.868928
vn 0.484563 0.100815 0.868928
vn 0.484563 0.100815 0.868928
vn 0.988839 -0.148075 0.016480
vn 0.988839 -0.148075 0.016480
vn 0.988839 -0.148075 0.016480
vn 0.671590 0.139719 0.727630
vn 0.671590 0.139719 0.727630
vn 0.671590 0.139719 0.727630
vn 0.927833 -0.138940 -0.346152
vn 0.927833 -0.138940 -0.346152
vn 0.927833 -0.138940 -0.346152
vn -0.712482 -0.610932 -0.345155
vn -0.712482 -0.610932 -0.345155
vn -0.712482 -0.610931 -0.345155
vn -0.194281 -0.450247 0.871512
vn -0.194281 -0.450247 0.871512
vn -0.194281 -0.450247 0.871512
vn -0.745877 -0.639560 -0.186092
vn -0.745877 -0.639560 -0.186092
vn -0.745877 -0.639560 -0.186092
vn -0.591446 -0.499899 0.632687
vn -0.591446 -0.499899 0.632687
vn -0.591446 -0.499899 0.632687
vn -0.547939 -0.424835 0.720610
vn -0.547939 -0.424835 0.720610
vn -0.547939 -0.424835 0.720610
vn -0.712507 -0.552372 -0.432688
vn -0.712507 -0.552372 -0.432688
vn -0.712507 -0.552372 -0.432688
vn 0.127203 0.227495 0.965435
vn 0.127203 0.227495 0.965435
vn 0.127203 0.227495 0.965435
vn 0.109030 0.092115 0.989761
vn 0.109030 0.092115 0.989761
vn 0.109030 0.092115 0.989761
vn 0.461680 0.825138 -0.325575
vn 0.461680 0.825138 -0.325575
vn 0.461680 0.825138 -0.325575
vn 0.433656 0.810632 -0.393468
vn 0.433656 0.810633 -0.393468
vn 0.433656 0.810633 -0.393468
vn 0.433656 0.810632 0.393470
vn 0.433656 0.810632 0.393470
vn 0.433656 0.810632 0.393470
vn 0.582673 0.727685 -0.361893
vn 0.582673 0.727685 -0.361893
vn 0.582673 0.727685 -0.361893
vn 0.048447 0.060592 -0.996986
vn 0.048447 0.060592 -0.996986
vn 0.048447 0.060592 -0.996986
vn 0.057048 0.132085 -0.989595
vn 0.057048 0.132085 -0.989595
vn 0.057048 0.132085 -0.989595
vn 0.261967 -0.911572 0.316876
vn 0.261967 -0.911572 0.316876
vn 0.261967 -0.911572 0.316876
vn 0.169183 -0.588144 -0.790863
vn 0.169183 -0.588144 -0.790863
vn 0.169183 -0.588144 -0.790863
vn -0.187826 0.389763 -0.901558
vn -0.187826 0.389763 -0.901558
vn -0.187826 0.389763 -0.901558
vn 0.319864 -0.922306 0.216885
vn 0.319864 -0.922306 0.216885
vn 0.319864 -0.922306 0.216885
vn 0.315487 -0.644235 0.696727
vn 0.315487 -0.644235 0.696727
vn 0.315487 -0.644235 0.696727
vn 0.296190 -0.853956 0.427822
vn 0.296190 -0.853956 0.427821
vn 0.296190 -0.853956 0.427821
vn -0.100922 0.272514 0.956844
vn -0.100922 0.272514 0.956844
vn -0.100922 0.272514 0.956844
vn -0.095044 0.194463 0.976295
vn -0.095044 0.194463 0.976295
vn -0.095044 0.194463 0.976295
vn -0.283940 0.768032 0.574025
vn -0.283940 0.768032 0.574025
vn -0.283940 0.768032 0.574025
vn -0.622244 0.778013 -0.086655
vn -0.622244 0.778012 -0.086655
vn -0.622244 0.778013 -0.086655
vn -0.336984 0.699927 -0.629718
vn -0.336984 0.699927 -0.629718
vn -0.336984 0.699927 -0.629718
vn -0.354420 0.120207 0.927328
vn -0.354420 0.120207 0.927328
vn -0.354420 0.120208 0.927328
vn -0.938693 0.320232 0.127699
vn -0.938693 0.320232 0.127699
vn -0.938693 0.320232 0.127699
vn -0.221474 -0.043409 -0.974200
vn -0.221474 -0.043409 -0.974200
vn -0.221474 -0.043409 -0.974200
vn -0.596523 0.099906 0.796353
vn -0.596523 0.099906 0.796353
vn -0.596523 0.099906 0.796353
vn 0.804047 -0.134859 -0.579070
vn 0.804047 -0.134859 -0.579070
vn 0.804047 -0.134859 -0.579070
vn 0.908557 -0.290702 -0.300029
vn 0.908557 -0.290703 -0.300029
vn 0.908557 -0.290702 -0.300029
vn 0.980901 -0.161622 -0.108216
vn 0.980901 -0.161622 -0.108216
vn 0.980901 -0.161622 -0.108216
vn 0.609040 -0.099905 0.786822
vn 0.609040 -0.099905 0.786822
vn 0.609040 -0.099905 0.786822
vn -0.990939 0.109681 -0.077525
vn -0.990939 0.109681 -0.077525
vn -0.990939 0.109681 -0.077525
vn -0.690334 -0.134218 -0.710932
vn -0.690334 -0.134218 -0.710932
vn -0.690334 -0.134218 -0.710932
vn 0.827495 0.390057 -0.403865
vn 0.827495 0.390057 -0.403866
vn 0.827495 0.390057 -0.403865
vn -0.399871 -0.616813 -0.677971
vn -0.399871 -0.616813 -0.677971
vn -0.399871 -0.616813 -0.677971
vn -0.142019 -0.066532 0.987626
vn -0.142019 -0.066532 0.987625
vn -0.142019 -0.066532 0.987625
vn -0.390549 -0.559744 0.730862
vn -0.390549 -0.559744 0.730862
vn -0.390549 -0.559744 0.730862
vn -0.347258 -0.535444 0.769878
vn -0.347258 -0.535444 0.769878
vn -0.347257 -0.535444 0.769878
vn -0.571772 -0.819478 0.039147
vn -0.571772 -0.819478 0.039147
vn -0.571772 -0.819478 0.039147
vn 0.091261 -0.619346 -0.779796
vn 0.091261 -0.619346 -0.779797
vn 0.091261 -0.619346 -0.779796
vn 0.026441 -0.180866 -0.983152
vn 0.026441 -0.180866 -0.983152
vn 0.026441 -0.180866 -0.983152
vn -0.058750 -0.588732 -0.806191
vn -0.058750 -0.588732 -0.806191
vn -0.058750 -0.588732 -0.806191
vn 0.086195 0.896974 -0.433598
vn 0.086195 0.896974 -0.433598
vn 0.086195 0.896974 -0.433598
vn 0.227726 0.955222 -0.188921
vn 0.227726 0.955222 -0.188921
vn 0.227726 0.955222 -0.188921
vn -0.066872 0.971928 0.225574
vn -0.066872 0.971928 0.225574
vn -0.066872 0.971928 0.225574
vn -0.165749 0.330314 0.929204
vn -0.165749 0.330314 0.929204
vn -0.165749 0.330314 0.929204
vn 0.126406 -0.134345 0.982839
vn 0.126406 -0.134345 0.982839
vn 0.126406 -0.134345 0.982839
vn 0.159452 -0.330626 0.930194
vn 0.159452 -0.330626 0.930194
vn 0.159452 -0.330626 0.930194
vn 0.651945 -0.691204 0.311777
vn 0.651945 -0.691204 0.311777
vn 0.651945 -0.691204 0.311777
vn 0.455249 -0.880707 -0.130779
vn 0.455249 -0.880707 -0.130779
vn 0.455249 -0.880707 -0.130779
vn 0.439987 -0.851182 -0.286183
vn 0.439987 -0.851182 -0.286183
vn 0.439987 -0.851182 -0.286183
vn -0.910712 -0.413041 -0.000003
vn -0.910712 -0.413041 -0.000003
vn -0.910712 -0.413041 -0.000003
vn -0.835871 -0.224181 -0.501061
vn -0.835871 -0.224181 -0.501061
vn -0.835871 -0.224181 -0.501061
vn -0.646272 -0.282172 -0.709021
vn -0.646272 -0.282172 -0.709021
vn -0.646272 -0.282172 -0.709021
vn -0.860395 -0.489345 0.142340
vn -0.860396 -0.489345 0.142340
vn -0.860396 -0.489345 0.142340
vn 0.423651 0.092783 0.901061
vn 0.423651 0.092783 0.901061
vn 0.423651 0.092783 0.901061
vn -0.363017 0.141653 0.920952
vn -0.352805 0.118172 0.928205
vn -0.362079 0.127258 0.923420
vn 0.918415 0.174175 0.355214
vn 0.918415 0.174175 0.355214
vn 0.918415 0.174175 0.355214
vn 0.962682 0.139630 0.231835
vn 0.962682 0.139630 0.231835
vn 0.962682 0.139630 0.231835
vn 0.962683 0.139630 -0.231831
vn 0.962683 0.139630 -0.231831
vn 0.962683 0.139630 -0.231831
vn 0.632698 0.324838 -0.702975
vn 0.658349 0.262623 -0.705411
vn 0.642312 0.295227 -0.707302
vn 0.452887 0.151546 -0.878594
vn 0.452887 0.151546 -0.878594
vn 0.452887 0.151546 -0.878594
vn 0.000238 -1.000000 0.000000
vn 0.000238 -1.000000 0.000000
vn 0.000238 -1.000000 0.000000
vn 0.403158 0.644378 -0.649801
vn 0.258317 0.829746 -0.494767
vn -0.774537 0.289215 -0.562537
vn -0.784397 0.263834 -0.561349
vn -0.792880 0.240522 -0.559903
vn -0.814478 0.172877 -0.553840
vn 0.409624 0.856055 0.315244
vn 0.337463 0.910661 0.238361
vn 0.374810 0.884459 0.277939
vn 0.282063 0.942281 0.180406
vn -0.430485 0.288648 0.855199
vn -0.424192 0.080463 0.901990
vn -0.980365 0.197191 -0.000001
vn -0.976223 0.216479 0.011196
vn -0.978586 0.205778 0.004976
vn -0.972520 0.231940 0.020214
s off
g pCylinder1
usemtl initialShadingGroup
f 30/96/1 43/97/2 29/98/3
f 60/1/4 5/2/5 1/3/6
f 5/2/7 35/5/8 1/3/9
f 35/5/10 29/9/11 1/3/12
f 31/14/13 36/10/14 2/6/15
f 36/10/16 60/1/17 2/6/18
f 60/1/19 1/3/20 2/6/21
f 36/114/22 31/115/23 49/116/24
f 31/115/25 32/117/26 49/116/27
f 32/27/28 3/31/29 30/29/30
f 49/26/31 32/27/32 6/28/33
f 32/27/34 30/29/35 6/28/36
f 3/31/37 43/35/38 30/29/39
f 6/28/40 30/29/41 4/32/42
f 30/96/43 29/98/44 4/99/45
f 4/99/46 29/98/47 35/100/48
f 1/63/49 29/64/50 43/65/51
f 31/69/52 2/68/53 32/66/54
f 32/66/55 2/68/56 1/63/57
f 43/65/58 32/66/59 1/63/60
f 63/70/61 62/71/62 64/72/63
f 65/77/64 63/70/65 66/74/66
f 64/72/67 66/74/68 63/70/69
f 8/4/70 37/7/71 5/2/72
f 37/7/73 35/5/74 5/2/75
f 36/10/76 38/13/77 60/1/78
f 38/13/79 9/8/80 60/1/81
f 9/8/82 8/4/83 60/1/84
f 8/4/85 5/2/86 60/1/87
f 38/119/88 36/114/89 54/118/90
f 36/114/91 49/116/92 54/118/93
f 54/34/94 49/26/95 10/30/96
f 49/26/97 6/28/98 10/30/99
f 10/30/100 6/28/101 7/33/102
f 6/28/103 4/32/104 7/33/105
f 37/102/106 7/101/107 35/100/108
f 7/101/109 4/99/110 35/100/111
f 11/11/112 37/7/113 8/4/114
f 40/18/115 12/12/116 38/13/117
f 38/13/118 12/12/119 9/8/120
f 12/12/121 8/4/122 9/8/123
f 38/119/124 54/118/125 40/120/126
f 40/120/127 54/118/128 48/121/129
f 54/34/130 10/30/131 48/37/132
f 7/101/133 37/102/134 11/103/135
f 39/104/136 7/101/137 11/103/138
f 12/12/139 59/15/140 8/4/141
f 59/15/142 11/11/143 8/4/144
f 7/33/145 39/36/146 10/30/147
f 53/122/148 40/120/149 48/121/150
f 13/38/151 48/37/152 10/30/153
f 48/37/154 13/38/155 53/40/156
f 13/38/157 10/30/158 39/36/159
f 58/17/160 16/16/161 59/15/162
f 15/19/163 11/11/164 16/16/165
f 16/16/166 11/11/167 59/15/168
f 61/21/169 58/17/170 40/18/171
f 40/18/172 58/17/173 12/12/174
f 58/17/175 59/15/176 12/12/177
f 52/124/178 61/123/179 53/122/180
f 53/122/181 61/123/182 40/120/183
f 53/40/184 13/38/185 52/42/186
f 52/42/187 13/38/188 17/41/189
f 17/41/190 13/38/191 14/39/192
f 13/38/193 39/36/194 14/39/195
f 14/106/196 39/104/197 15/105/198
f 39/104/199 11/103/200 15/105/201
f 58/17/202 18/20/203 16/16/204
f 18/20/205 15/19/206 16/16/207
f 23/107/208 14/106/209 15/105/210
f 57/22/211 18/20/212 58/17/213
f 61/21/214 51/23/215 58/17/216
f 51/23/217 57/22/218 58/17/219
f 52/124/220 47/125/221 61/123/222
f 47/125/223 51/126/224 61/123/225
f 17/41/226 47/44/227 52/42/228
f 47/44/229 17/41/230 23/43/231
f 17/41/232 14/39/233 23/43/234
f 47/125/235 50/127/236 51/126/237
f 50/45/238 47/44/239 23/43/240
f 23/107/241 15/105/242 25/108/243
f 25/108/244 15/105/245 24/109/246
f 15/105/247 18/110/248 24/109/249
f 56/24/250 24/25/251 18/20/252
f 56/24/253 18/20/254 57/22/255
f 51/79/256 56/81/257 57/82/258
f 23/43/259 42/46/260 50/45/261
f 42/84/262 23/87/263 25/85/264
f 51/79/265 26/80/266 56/81/267
f 50/127/268 46/129/269 26/128/270
f 50/127/271 26/128/272 51/126/273
f 42/84/274 41/83/275 50/86/276
f 46/89/277 50/86/278 41/83/279
f 41/83/280 42/84/281 25/85/282
f 41/83/283 25/85/284 19/88/285
f 19/111/286 25/108/287 24/109/288
f 19/111/289 24/109/290 27/112/291
f 27/95/292 24/93/293 20/94/294
f 56/91/295 21/92/296 24/93/297
f 21/92/298 20/94/299 24/93/300
f 26/128/301 21/131/302 56/133/303
f 46/129/304 45/130/305 26/128/306
f 45/130/307 21/131/308 26/128/309
f 45/54/310 46/58/311 22/56/312
f 46/89/313 41/83/314 22/90/315
f 22/90/316 41/83/317 19/88/318
f 55/47/319 33/48/320 20/49/321
f 27/52/322 20/49/323 28/50/324
f 33/48/325 28/50/326 20/49/327
f 20/49/328 21/51/329 55/47/330
f 45/130/331 44/132/332 21/131/333
s 1
f 55/134/334 21/131/335 44/132/336
s off
f 44/53/337 45/54/338 34/55/339
f 45/54/340 22/56/341 34/55/342
f 22/56/343 19/59/344 34/55/345
s 2
f 34/55/346 19/59/347 28/61/348
s off
f 19/111/349 27/112/350 28/113/351
f 32/66/352 43/65/353 3/67/354
s 2
f 28/61/348 62/62/355 34/55/346
f 34/55/346 62/62/355 63/60/356
s 3
f 33/75/357 64/72/358 28/73/359
f 28/73/359 64/72/358 62/71/360
s 4
f 44/53/361 34/55/362 65/57/363
f 65/57/363 34/55/362 63/60/364
s 1
f 55/76/334 44/78/336 66/74/365
f 66/135/365 44/136/336 65/137/366
s 5
f 33/75/367 55/76/368 64/72/369
f 64/72/369 55/76/368 66/74/370
